<svg width="62" height="64" viewBox="0 0 62 64" fill="none" xmlns="http://www.w3.org/2000/svg">
<g filter="url(#filter0_dd_121_6746)">
<path d="M1 17C1 8.16344 8.16345 1 17 1H45C53.8366 1 61 8.16345 61 17V45C61 53.8366 53.8366 61 45 61H17C8.16344 61 1 53.8366 1 45V17Z" fill="#0D131B"/>
</g>
<g clip-path="url(#clip0_121_6746)">
<path d="M31 20H50.0495C48.1191 16.6555 45.3423 13.8781 41.9981 11.9471C38.6539 10.0162 34.8602 8.99973 30.9986 9C27.1369 9.00027 23.3434 10.0172 19.9995 11.9487C16.6556 13.8801 13.8791 16.6579 11.9492 20.0027L21.4739 36.5L21.4825 36.4978C20.5135 34.827 20.0022 32.9303 20.0001 30.9988C19.9979 29.0674 20.5049 27.1695 21.4701 25.4965C22.4353 23.8235 23.8244 22.4345 25.4975 21.4695C27.1706 20.5045 29.0686 19.9977 31 20Z" fill="url(#paint0_linear_121_6746)"/>
<path d="M30.9998 39.7087C35.8093 39.7087 39.7082 35.8098 39.7082 31.0003C39.7082 26.1908 35.8093 22.292 30.9998 22.292C26.1904 22.292 22.2915 26.1908 22.2915 31.0003C22.2915 35.8098 26.1904 39.7087 30.9998 39.7087Z" fill="#1A73E8"/>
<path d="M40.5252 36.5027L31.0005 53.0001C34.8622 53.0006 38.6559 51.9844 42.0002 50.0537C45.3445 48.123 48.1216 45.3458 50.0521 42.0014C51.9827 38.657 52.9987 34.8633 52.998 31.0017C52.9974 27.14 51.98 23.3466 50.0482 20.0029H30.9989L30.9966 20.0115C32.928 20.0077 34.8263 20.5133 36.5001 21.4771C38.1739 22.4409 39.564 23.829 40.5303 25.5014C41.4966 27.1737 42.0049 29.0713 42.004 31.0027C42.0031 32.9342 41.4931 34.8313 40.5252 36.5027Z" fill="url(#paint1_linear_121_6746)"/>
<path d="M21.4745 36.5032L11.9498 20.0059C10.0185 23.3499 9.00161 27.1434 9.00146 31.005C9.00132 34.8667 10.0179 38.6603 11.9489 42.0044C13.88 45.3486 16.6575 48.1254 20.0021 50.0556C23.3467 51.9858 27.1406 53.0015 31.0022 53.0004L40.5269 36.503L40.5208 36.4968C39.5583 38.1713 38.1713 39.5625 36.4997 40.5301C34.8281 41.4977 32.9309 42.0075 30.9995 42.0082C29.068 42.0088 27.1705 41.5003 25.4983 40.5338C23.826 39.5673 22.4381 38.1771 21.4745 36.5032Z" fill="url(#paint2_linear_121_6746)"/>
</g>
<defs>
<filter id="filter0_dd_121_6746" x="0" y="0" width="62" height="64" filterUnits="userSpaceOnUse" color-interpolation-filters="sRGB">
<feFlood flood-opacity="0" result="BackgroundImageFix"/>
<feColorMatrix in="SourceAlpha" type="matrix" values="0 0 0 0 0 0 0 0 0 0 0 0 0 0 0 0 0 0 127 0" result="hardAlpha"/>
<feOffset/>
<feGaussianBlur stdDeviation="0.5"/>
<feColorMatrix type="matrix" values="0 0 0 0 0.0509804 0 0 0 0 0.0745098 0 0 0 0 0.105882 0 0 0 0.25 0"/>
<feBlend mode="normal" in2="BackgroundImageFix" result="effect1_dropShadow_121_6746"/>
<feColorMatrix in="SourceAlpha" type="matrix" values="0 0 0 0 0 0 0 0 0 0 0 0 0 0 0 0 0 0 127 0" result="hardAlpha"/>
<feOffset dy="2"/>
<feGaussianBlur stdDeviation="0.5"/>
<feColorMatrix type="matrix" values="0 0 0 0 0.0509804 0 0 0 0 0.0745098 0 0 0 0 0.105882 0 0 0 0.05 0"/>
<feBlend mode="normal" in2="effect1_dropShadow_121_6746" result="effect2_dropShadow_121_6746"/>
<feBlend mode="normal" in="SourceGraphic" in2="effect2_dropShadow_121_6746" result="shape"/>
</filter>
<linearGradient id="paint0_linear_121_6746" x1="11.9492" y1="22.75" x2="50.0495" y2="22.75" gradientUnits="userSpaceOnUse">
<stop stop-color="#D93025"/>
<stop offset="1" stop-color="#EA4335"/>
</linearGradient>
<linearGradient id="paint1_linear_121_6746" x1="27.995" y1="52.7059" x2="47.0451" y2="19.7101" gradientUnits="userSpaceOnUse">
<stop stop-color="#FCC934"/>
<stop offset="1" stop-color="#FBBC04"/>
</linearGradient>
<linearGradient id="paint2_linear_121_6746" x1="33.3815" y1="51.6267" x2="14.3313" y2="18.6309" gradientUnits="userSpaceOnUse">
<stop stop-color="#1E8E3E"/>
<stop offset="1" stop-color="#34A853"/>
</linearGradient>
<clipPath id="clip0_121_6746">
<rect width="44" height="44" fill="white" transform="translate(9 9)"/>
</clipPath>
</defs>
</svg>
