<svg width="44" height="44" viewBox="0 0 44 44" fill="none" xmlns="http://www.w3.org/2000/svg">
<g clip-path="url(#clip0_121_6730)">
<path d="M22 32.9951C28.0751 32.9951 33 28.0702 33 21.9951C33 15.92 28.0751 10.9951 22 10.9951C15.9249 10.9951 11 15.92 11 21.9951C11 28.0702 15.9249 32.9951 22 32.9951Z" fill="white"/>
<path d="M22 11H41.0495C39.1191 7.65548 36.3423 4.87808 32.9981 2.94713C29.6539 1.01617 25.8602 -0.000269381 21.9986 5.35515e-08C18.1369 0.000269488 14.3434 1.01724 10.9995 2.94866C7.65556 4.88008 4.87907 7.65786 2.94922 11.0027L12.4739 27.5L12.4825 27.4978C11.5135 25.827 11.0022 23.9303 11.0001 21.9988C10.9979 20.0674 11.5049 18.1695 12.4701 16.4965C13.4353 14.8235 14.8244 13.4345 16.4975 12.4695C18.1706 11.5045 20.0686 10.9977 22 11Z" fill="url(#paint0_linear_121_6730)"/>
<path d="M21.9998 30.7087C26.8093 30.7087 30.7082 26.8098 30.7082 22.0003C30.7082 17.1908 26.8093 13.292 21.9998 13.292C17.1904 13.292 13.2915 17.1908 13.2915 22.0003C13.2915 26.8098 17.1904 30.7087 21.9998 30.7087Z" fill="#1A73E8"/>
<path d="M31.5252 27.5027L22.0005 44.0001C25.8622 44.0006 29.6559 42.9844 33.0002 41.0537C36.3445 39.123 39.1216 36.3458 41.0521 33.0014C42.9827 29.657 43.9987 25.8633 43.998 22.0017C43.9974 18.14 42.98 14.3466 41.0482 11.0029H21.9989L21.9966 11.0115C23.928 11.0077 25.8263 11.5133 27.5001 12.4771C29.1739 13.4409 30.564 14.829 31.5303 16.5014C32.4966 18.1737 33.0049 20.0713 33.004 22.0027C33.0031 23.9342 32.4931 25.8313 31.5252 27.5027Z" fill="url(#paint1_linear_121_6730)"/>
<path d="M12.4745 27.5032L2.94976 11.0059C1.01845 14.3499 0.00160877 18.1434 0.00146486 22.005C0.00132095 25.8667 1.01788 29.6603 2.94894 33.0044C4.87999 36.3486 7.65747 39.1254 11.0021 41.0556C14.3467 42.9858 18.1406 44.0015 22.0022 44.0004L31.5269 27.503L31.5208 27.4968C30.5583 29.1713 29.1713 30.5625 27.4997 31.5301C25.8281 32.4977 23.9309 33.0075 21.9995 33.0082C20.068 33.0088 18.1705 32.5003 16.4983 31.5338C14.826 30.5673 13.4381 29.1771 12.4745 27.5032Z" fill="url(#paint2_linear_121_6730)"/>
</g>
<defs>
<linearGradient id="paint0_linear_121_6730" x1="2.94922" y1="13.75" x2="41.0495" y2="13.75" gradientUnits="userSpaceOnUse">
<stop stop-color="#D93025"/>
<stop offset="1" stop-color="#EA4335"/>
</linearGradient>
<linearGradient id="paint1_linear_121_6730" x1="18.995" y1="43.7059" x2="38.0451" y2="10.7101" gradientUnits="userSpaceOnUse">
<stop stop-color="#FCC934"/>
<stop offset="1" stop-color="#FBBC04"/>
</linearGradient>
<linearGradient id="paint2_linear_121_6730" x1="24.3815" y1="42.6267" x2="5.33134" y2="9.63086" gradientUnits="userSpaceOnUse">
<stop stop-color="#1E8E3E"/>
<stop offset="1" stop-color="#34A853"/>
</linearGradient>
<clipPath id="clip0_121_6730">
<rect width="44" height="44" fill="white"/>
</clipPath>
</defs>
</svg>
