<svg width="44" height="44" viewBox="0 0 44 44" fill="none" xmlns="http://www.w3.org/2000/svg">
<g clip-path="url(#clip0_122_7134)">
<path d="M0 33.8462H10.4359V10.4359H33.8462V0H5.21795C1.73932 0 0 1.6453 0 4.9359" fill="#4285F4"/>
<path d="M33.5645 0V10.7179H44.0004V4.9359C44.0004 1.6453 42.3551 0 39.0645 0" fill="#1967D2"/>
<path d="M33.5645 10.4355H44.0004V33.5638H33.5645" fill="#FBBC04"/>
<path d="M0 33.5645V39.0645C0 42.3551 1.6453 44.0004 4.9359 44.0004H10.7179V33.5645" fill="#188038"/>
<path d="M10.4355 33.5645H33.5638V44.0004H10.4355" fill="#34A853"/>
<path d="M33.5645 44.0004V33.5645H44.0004" fill="#EA4335"/>
<path d="M14.6665 18.1922C14.8137 17.6268 15.1384 17.1098 15.6037 16.7C16.0689 16.2901 16.6561 16.004 17.2985 15.874C17.9408 15.744 18.6125 15.7754 19.2372 15.9646C19.8619 16.1538 20.4145 16.4933 20.8322 16.9444C21.2499 17.3955 21.5159 17.9401 21.6 18.5163C21.684 19.0926 21.5828 19.6773 21.3077 20.204C21.0327 20.7306 20.5949 21.1782 20.0441 21.4957C19.4933 21.8132 18.8517 21.9879 18.1921 21.9999M18.1921 21.9999H16.9229M18.1921 21.9999C18.85 22.0183 19.4896 22.1984 20.0387 22.5197C20.5878 22.8411 21.0245 23.2908 21.2992 23.8181C21.574 24.3455 21.676 24.9293 21.5935 25.5035C21.5111 26.0778 21.2475 26.6195 20.8328 27.0675C20.418 27.5155 19.8685 27.8518 19.2465 28.0383C18.6244 28.2249 17.9547 28.2543 17.3131 28.1232C16.6714 27.9921 16.0835 27.7058 15.6158 27.2965C15.1481 26.8873 14.8192 26.3715 14.6665 25.8076M23.9742 18.4743L27.7819 15.7948H28.346V14.8076V29.3333" stroke="#4285F4" stroke-width="2.11538" stroke-linejoin="bevel"/>
</g>
<defs>
<clipPath id="clip0_122_7134">
<rect width="44" height="44" rx="11.7333" fill="white"/>
</clipPath>
</defs>
</svg>
