<svg width="44" height="44" viewBox="0 0 44 44" fill="none" xmlns="http://www.w3.org/2000/svg">
<path d="M35.75 26.125V21.3125C35.75 19.6715 35.0981 18.0977 33.9377 16.9373C32.7773 15.7769 31.2035 15.125 29.5625 15.125H26.8125C26.2655 15.125 25.7409 14.9077 25.3541 14.5209C24.9673 14.1341 24.75 13.6095 24.75 13.0625V10.3125C24.75 8.67147 24.0981 7.09766 22.9377 5.93728C21.7773 4.7769 20.2035 4.125 18.5625 4.125H15.125M15.125 27.5H28.875ZM15.125 33H22ZM19.25 4.125H10.3125C9.174 4.125 8.25 5.049 8.25 6.1875V37.8125C8.25 38.951 9.174 39.875 10.3125 39.875H33.6875C34.826 39.875 35.75 38.951 35.75 37.8125V20.625C35.75 16.2489 34.0116 12.0521 30.9173 8.95774C27.8229 5.86339 23.6261 4.125 19.25 4.125Z" fill="url(#paint0_linear_122_7033)"/>
<path d="M35.75 26.125V21.3125C35.75 19.6715 35.0981 18.0977 33.9377 16.9373C32.7773 15.7769 31.2035 15.125 29.5625 15.125H26.8125C26.2655 15.125 25.7409 14.9077 25.3541 14.5209C24.9673 14.1341 24.75 13.6095 24.75 13.0625V10.3125C24.75 8.67147 24.0981 7.09766 22.9377 5.93728C21.7773 4.7769 20.2035 4.125 18.5625 4.125H15.125M15.125 27.5H28.875M15.125 33H22M19.25 4.125H10.3125C9.174 4.125 8.25 5.049 8.25 6.1875V37.8125C8.25 38.951 9.174 39.875 10.3125 39.875H33.6875C34.826 39.875 35.75 38.951 35.75 37.8125V20.625C35.75 16.2489 34.0116 12.0521 30.9173 8.95774C27.8229 5.86339 23.6261 4.125 19.25 4.125Z" stroke="#F0EEE6" stroke-width="2" stroke-linecap="round" stroke-linejoin="round"/>
<defs>
<linearGradient id="paint0_linear_122_7033" x1="22" y1="4.125" x2="22" y2="39.875" gradientUnits="userSpaceOnUse">
<stop stop-color="#656358"/>
<stop offset="1" stop-color="#0D131B"/>
</linearGradient>
</defs>
</svg>
