<svg width="44" height="44" viewBox="0 0 44 44" fill="none" xmlns="http://www.w3.org/2000/svg">
<g clip-path="url(#clip0_122_6957)">
<path fill-rule="evenodd" clip-rule="evenodd" d="M21.8825 0.5C9.78205 0.5 0 10.3542 0 22.5451C0 32.29 6.2677 40.5388 14.9627 43.4583C16.0497 43.6778 16.4479 42.984 16.4479 42.4004C16.4479 41.8893 16.4121 40.1375 16.4121 38.3122C10.3249 39.6264 9.05732 35.6843 9.05732 35.6843C8.07907 33.1294 6.62961 32.4727 6.62961 32.4727C4.63728 31.1223 6.77474 31.1223 6.77474 31.1223C8.98476 31.2683 10.1444 33.3851 10.1444 33.3851C12.1005 36.7427 15.2525 35.794 16.5205 35.21C16.7015 33.7865 17.2815 32.8011 17.8974 32.2537C13.0424 31.7426 7.9344 29.8448 7.9344 21.3769C7.9344 18.9681 8.80335 16.9972 10.1803 15.4644C9.96301 14.9171 9.202 12.6538 10.3979 9.62451C10.3979 9.62451 12.2456 9.04043 16.4117 11.8874C18.1953 11.4048 20.0348 11.1593 21.8825 11.1573C23.7302 11.1573 25.6137 11.413 27.3529 11.8874C31.5194 9.04043 33.3671 9.62451 33.3671 9.62451C34.563 12.6538 33.8016 14.9171 33.5843 15.4644C34.9975 16.9972 35.8306 18.9681 35.8306 21.3769C35.8306 29.8448 30.7226 31.7059 25.8314 32.2537C26.6286 32.9471 27.3166 34.2608 27.3166 36.3414C27.3166 39.2976 27.2808 41.6703 27.2808 42.3999C27.2808 42.984 27.6795 43.6778 28.7661 43.4588C37.4611 40.5384 43.7288 32.29 43.7288 22.5451C43.7646 10.3542 33.9467 0.5 21.8825 0.5Z" fill="#24292F"/>
</g>
<defs>
<clipPath id="clip0_122_6957">
<rect width="43.8958" height="43" fill="white" transform="translate(0 0.5)"/>
</clipPath>
</defs>
</svg>
