<svg width="179" height="135" viewBox="0 0 179 135" fill="none" xmlns="http://www.w3.org/2000/svg">
<path d="M138.27 12.0597L89.72 49.0597L40.06 12.0597V12.0697L40.12 12.1197V63.9297L89.16 101.73L138.27 65.3897V12.0597Z" fill="#EA4335"/>
<path d="M151.02 3.05971L138.27 12.0597V65.3897L178.39 35.3097V17.1897C178.39 17.1897 173.52 -8.69029 151.02 3.05971Z" fill="#FBBC05"/>
<path d="M138.27 65.3897V134.56H169.02C169.02 134.56 177.77 133.68 178.4 123.94V35.3097L138.27 65.3897Z" fill="#34A853"/>
<path d="M40.12 134.62V63.9297L40.06 63.8797L40.12 134.62Z" fill="#C5221F"/>
<path d="M40.06 12.0697L27.38 3.11971C4.88 -8.63029 0 17.2397 0 17.2397V35.3597L40.06 63.8797V12.0697Z" fill="#C5221F"/>
<path d="M40.06 12.0697V63.8797L40.12 63.9297V12.1197L40.06 12.0697Z" fill="#C5221F"/>
<path d="M0 35.3697V124C0.62 133.75 9.38 134.62 9.38 134.62H40.13L40.06 63.8797L0 35.3697Z" fill="#4285F4"/>
</svg>
