<svg width="44" height="34" viewBox="0 0 44 34" fill="none" xmlns="http://www.w3.org/2000/svg">
<path d="M34.1035 3.0459L22.1291 12.391L9.88086 3.0459V3.04842L9.89566 3.06106V16.1467L21.9911 25.6937L34.1035 16.5153V3.0459Z" fill="#EA4335"/>
<path d="M37.2472 0.77279L34.1025 3.0459V16.5154L43.9978 8.91819V4.34157C43.9978 4.34157 42.7967 -2.1949 37.2472 0.77279Z" fill="#FBBC05"/>
<path d="M34.1025 16.5151V33.9853H41.6867C41.6867 33.9853 43.845 33.7631 44.0002 31.3031V8.91797L34.1025 16.5151Z" fill="#34A853"/>
<path d="M9.89622 34.0006V16.1464L9.88086 16.1338L9.89622 34.0006Z" fill="#C5221F"/>
<path d="M9.8805 3.04816L6.75307 0.787664C1.20361 -2.18002 0 4.35395 0 4.35395V8.93041L9.8805 16.1338V3.04816Z" fill="#C5221F"/>
<path d="M9.88086 3.04883V16.1345L9.89622 16.1471V3.06147L9.88086 3.04883Z" fill="#C5221F"/>
<path d="M0 8.93359V31.3187C0.152923 33.7814 2.31351 34.0012 2.31351 34.0012H9.89776L9.8805 16.1344L0 8.93359Z" fill="#4285F4"/>
</svg>
