<svg width="48" height="48" viewBox="0 0 48 48" fill="none" xmlns="http://www.w3.org/2000/svg">
<rect width="48" height="48" rx="8" fill="#1A73E8"/>
<path d="M24 12C30.627 12 36 17.373 36 24C36 30.627 30.627 36 24 36C17.373 36 12 30.627 12 24C12 17.373 17.373 12 24 12Z" fill="#FFFFFF"/>
<path d="M24 16C28.418 16 32 19.582 32 24C32 28.418 28.418 32 24 32C19.582 32 16 28.418 16 24C16 19.582 19.582 16 24 16Z" fill="#1A73E8"/>
<path d="M24 20C26.209 20 28 21.791 28 24C28 26.209 26.209 28 24 28C21.791 28 20 26.209 20 24C20 21.791 21.791 20 24 20Z" fill="#FFFFFF"/>
<path d="M18 18L22 22M30 18L26 22M18 30L22 26M30 30L26 26" stroke="#EA4335" stroke-width="2" stroke-linecap="round"/>
<rect x="22" y="14" width="4" height="4" fill="#34A853"/>
<rect x="22" y="30" width="4" height="4" fill="#34A853"/>
<rect x="14" y="22" width="4" height="4" fill="#FBBC04"/>
<rect x="30" y="22" width="4" height="4" fill="#FBBC04"/>
</svg>