<svg width="44" height="44" viewBox="0 0 44 44" fill="none" xmlns="http://www.w3.org/2000/svg">
<g clip-path="url(#clip0_122_6923)">
<path d="M37.125 11.6875C37.125 15.8638 30.3527 19.25 22 19.25C13.6473 19.25 6.875 15.8638 6.875 11.6875M37.125 11.6875C37.125 7.51117 30.3527 4.125 22 4.125C13.6473 4.125 6.875 7.51117 6.875 11.6875M37.125 11.6875V32.3125C37.125 36.4888 30.3527 39.875 22 39.875C13.6473 39.875 6.875 36.4888 6.875 32.3125V11.6875M37.125 11.6875V18.5625ZM6.875 11.6875V18.5625ZM37.125 18.5625V25.4375C37.125 29.6138 30.3527 33 22 33C13.6473 33 6.875 29.6138 6.875 25.4375V18.5625M37.125 18.5625C37.125 22.7388 30.3527 26.125 22 26.125C13.6473 26.125 6.875 22.7388 6.875 18.5625" fill="url(#paint0_linear_122_6923)"/>
<path d="M37.125 11.6875C37.125 15.8638 30.3527 19.25 22 19.25C13.6473 19.25 6.875 15.8638 6.875 11.6875M37.125 11.6875C37.125 7.51117 30.3527 4.125 22 4.125C13.6473 4.125 6.875 7.51117 6.875 11.6875M37.125 11.6875V32.3125C37.125 36.4888 30.3527 39.875 22 39.875C13.6473 39.875 6.875 36.4888 6.875 32.3125V11.6875M37.125 11.6875V18.5625M6.875 11.6875V18.5625M37.125 18.5625V25.4375C37.125 29.6138 30.3527 33 22 33C13.6473 33 6.875 29.6138 6.875 25.4375V18.5625M37.125 18.5625C37.125 22.7388 30.3527 26.125 22 26.125C13.6473 26.125 6.875 22.7388 6.875 18.5625" stroke="#656358" stroke-width="2" stroke-linecap="round" stroke-linejoin="round"/>
</g>
<defs>
<linearGradient id="paint0_linear_122_6923" x1="22" y1="4.125" x2="22" y2="39.875" gradientUnits="userSpaceOnUse">
<stop stop-color="#F0EEE5"/>
<stop offset="1" stop-color="#E9E5D8"/>
</linearGradient>
<clipPath id="clip0_122_6923">
<rect width="44" height="44" fill="white"/>
</clipPath>
</defs>
</svg>
