<svg width="270" height="270" viewBox="0 0 270 270" fill="none" xmlns="http://www.w3.org/2000/svg">
<path d="M58.4657 169.823C58.4657 185.087 45.9967 197.556 30.7329 197.556C15.469 197.556 3 185.087 3 169.823C3 154.559 15.469 142.09 30.7329 142.09H58.4657V169.823Z" fill="#E01E5A"/>
<path d="M72.4399 169.823C72.4399 154.559 84.909 142.09 100.173 142.09C115.437 142.09 127.906 154.559 127.906 169.823V239.262C127.906 254.526 115.437 266.995 100.173 266.995C84.909 266.995 72.4399 254.526 72.4399 239.262V169.823Z" fill="#E01E5A"/>
<path d="M100.173 58.4657C84.909 58.4657 72.4399 45.9967 72.4399 30.7329C72.4399 15.469 84.909 3 100.173 3C115.437 3 127.906 15.469 127.906 30.7329V58.4657H100.173Z" fill="#36C5F0"/>
<path d="M100.173 72.4434C115.436 72.4434 127.905 84.9124 127.905 100.176C127.905 115.44 115.436 127.909 100.173 127.909H30.7329C15.469 127.909 3 115.44 3 100.176C3 84.9124 15.469 72.4434 30.7329 72.4434H100.173Z" fill="#36C5F0"/>
<path d="M211.534 100.176C211.534 84.9124 224.003 72.4434 239.267 72.4434C254.531 72.4434 267 84.9124 267 100.176C267 115.44 254.531 127.909 239.267 127.909H211.534V100.176Z" fill="#2EB67D"/>
<path d="M197.56 100.173C197.56 115.436 185.091 127.905 169.828 127.905C154.564 127.905 142.095 115.436 142.095 100.173V30.7329C142.095 15.469 154.564 3 169.828 3C185.091 3 197.56 15.469 197.56 30.7329V100.173Z" fill="#2EB67D"/>
<path d="M169.827 211.533C185.091 211.533 197.56 224.002 197.56 239.266C197.56 254.53 185.091 266.999 169.827 266.999C154.564 266.999 142.094 254.53 142.094 239.266V211.533H169.827Z" fill="#ECB22E"/>
<path d="M169.827 197.556C154.564 197.556 142.094 185.087 142.094 169.823C142.094 154.559 154.564 142.09 169.827 142.09H239.267C254.531 142.09 267 154.559 267 169.823C267 185.087 254.531 197.556 239.267 197.556H169.827Z" fill="#ECB22E"/>
</svg>
