<svg width="270" height="270" viewBox="0 0 270 270" fill="none" xmlns="http://www.w3.org/2000/svg">
<path d="M64.1379 166.807C64.1379 180.88 52.6418 192.376 38.5689 192.376C24.4961 192.376 13 180.88 13 166.807C13 152.734 24.4961 141.238 38.5689 141.238H64.1379V166.807Z" fill="#E01E5A"/>
<path d="M77.0215 166.807C77.0215 152.734 88.5176 141.238 102.59 141.238C116.663 141.238 128.159 152.734 128.159 166.807V230.829C128.159 244.901 116.663 256.398 102.59 256.398C88.5176 256.398 77.0215 244.901 77.0215 230.829V166.807Z" fill="#E01E5A"/>
<path d="M102.59 64.1379C88.5176 64.1379 77.0215 52.6418 77.0215 38.5689C77.0215 24.4961 88.5176 13 102.59 13C116.663 13 128.159 24.4961 128.159 38.5689V64.1379H102.59Z" fill="#36C5F0"/>
<path d="M102.59 77.0234C116.663 77.0234 128.159 88.5196 128.159 102.592C128.159 116.665 116.663 128.161 102.59 128.161H38.5689C24.4961 128.161 13 116.665 13 102.592C13 88.5196 24.4961 77.0234 38.5689 77.0234H102.59Z" fill="#36C5F0"/>
<path d="M205.262 102.592C205.262 88.5196 216.759 77.0234 230.831 77.0234C244.904 77.0234 256.4 88.5196 256.4 102.592C256.4 116.665 244.904 128.161 230.831 128.161H205.262V102.592Z" fill="#2EB67D"/>
<path d="M192.379 102.59C192.379 116.663 180.883 128.159 166.81 128.159C152.737 128.159 141.241 116.663 141.241 102.59V38.5689C141.241 24.4961 152.737 13 166.81 13C180.883 13 192.379 24.4961 192.379 38.5689V102.59Z" fill="#2EB67D"/>
<path d="M166.81 205.262C180.883 205.262 192.379 216.758 192.379 230.831C192.379 244.903 180.883 256.4 166.81 256.4C152.737 256.4 141.241 244.903 141.241 230.831V205.262H166.81Z" fill="#ECB22E"/>
<path d="M166.81 192.376C152.737 192.376 141.241 180.88 141.241 166.807C141.241 152.734 152.737 141.238 166.81 141.238H230.831C244.904 141.238 256.4 152.734 256.4 166.807C256.4 180.88 244.904 192.376 230.831 192.376H166.81Z" fill="#ECB22E"/>
</svg>
